<?xml version="1.0" encoding="UTF-8" standalone="no"?>
<!-- Generator: Adobe Illustrator 26.0.1, SVG Export Plug-In . SVG Version: 6.00 Build 0)  -->

<svg
   version="1.1"
   x="0px"
   y="0px"
   viewBox="0 0 150.00001 24.999999"
   xml:space="preserve"
   id="svg94"
   sodipodi:docname="discord.svg"
   inkscape:version="1.2 (dc2aedaf03, 2022-05-15)"
   width="150"
   height="25"
   xmlns:inkscape="http://www.inkscape.org/namespaces/inkscape"
   xmlns:sodipodi="http://sodipodi.sourceforge.net/DTD/sodipodi-0.dtd"
   xmlns="http://www.w3.org/2000/svg"
   xmlns:svg="http://www.w3.org/2000/svg"><defs
   id="defs98"><clipPath
     id="clip0"><rect
       width="71"
       height="55"
       fill="#ffffff"
       id="rect1030"
       x="0"
       y="0" /></clipPath></defs><sodipodi:namedview
   id="namedview96"
   pagecolor="#ffffff"
   bordercolor="#000000"
   borderopacity="0.25"
   inkscape:showpageshadow="2"
   inkscape:pageopacity="0.0"
   inkscape:pagecheckerboard="0"
   inkscape:deskcolor="#000000"
   showgrid="false"
   inkscape:zoom="7.9999999"
   inkscape:cx="65.375001"
   inkscape:cy="15.5625"
   inkscape:window-width="1920"
   inkscape:window-height="999"
   inkscape:window-x="0"
   inkscape:window-y="0"
   inkscape:window-maximized="1"
   inkscape:current-layer="svg94" />
<style
   type="text/css"
   id="style74">
	.st0{display:none;}
	.st1{display:inline;}
	.st2{fill:#2091C0;}
	.st3{fill:#FFFFFF;}
	.st4{font-family:'JetBrainsMono-Medium';}
	.st5{font-size:47.0914px;}
</style>


<g
   inkscape:groupmode="layer"
   id="layer1"
   inkscape:label="background"><rect
     style="fill:#5865f2;fill-opacity:1;stroke-width:0.643274"
     id="rect1506"
     width="148.47887"
     height="22.386663"
     x="0.62099999"
     y="1.4"
     ry="10.739675"
     inkscape:label="color_rounded" /></g><g
   id="Слой_2"
   transform="matrix(0.5,0,0,0.5,-3.1425839,0.11180457)"
   inkscape:label="foreground"
   style="display:inline">
	
<text
   xml:space="preserve"
   style="font-size:32px;font-family:'DejaVu Sans Mono for Powerline';-inkscape-font-specification:'DejaVu Sans Mono for Powerline';fill:#ffffff"
   x="80.52578"
   y="36.408001"
   id="text227"
   inkscape:label="text"><tspan
     sodipodi:role="line"
     id="tspan225"
     x="80.52578"
     y="36.408001"
     style="font-style:normal;font-variant:normal;font-weight:normal;font-stretch:normal;font-size:32px;font-family:Ubuntu;-inkscape-font-specification:Ubuntu">gmanka#3806</tspan></text><path
   d="M 68.650149,9.3538663 C 65.513472,7.9146253 62.149859,6.854256 58.632993,6.2469385 c -0.06405,-0.011721 -0.128023,0.01757 -0.161017,0.076155 -0.43259,0.7693957 -0.911759,1.7731352 -1.24731,2.56207 -3.782616,-0.5662974 -7.545825,-0.5662974 -11.250879,0 -0.33562,-0.8064713 -0.832187,-1.7926743 -1.266718,-2.56207 -0.03299,-0.05663 -0.09697,-0.085921 -0.161017,-0.076155 -3.514926,0.6053767 -6.878538,1.665746 -10.017156,3.1069278 -0.02717,0.011714 -0.05046,0.031261 -0.06592,0.05663 -6.380064,9.5316777 -8.12783,18.8290747 -7.270435,28.0112017 0.0039,0.04492 0.0291,0.08789 0.06401,0.1152 4.209384,3.091277 8.286892,4.96796 12.28868,6.211874 0.06405,0.01955 0.131905,-0.0039 0.172662,-0.05663 0.946624,-1.292711 1.790456,-2.655775 2.513958,-4.089194 0.0427,-0.08394 0.0019,-0.183544 -0.08533,-0.216746 -1.338458,-0.507726 -2.612939,-1.126772 -3.8389,-1.829757 -0.09697,-0.05663 -0.104734,-0.195327 -0.01553,-0.261731 0.257987,-0.193317 0.516044,-0.394467 0.762387,-0.597558 0.04457,-0.03708 0.106675,-0.04492 0.159076,-0.02149 8.054038,3.67719 16.773493,3.67719 24.732501,0 0.0524,-0.02537 0.114507,-0.01754 0.161017,0.01955 0.246412,0.20309 0.504399,0.406181 0.764328,0.599498 0.08921,0.0664 0.08339,0.205101 -0.01359,0.261731 -1.225961,0.71664 -2.500442,1.322031 -3.840841,1.827817 -0.08727,0.0332 -0.126082,0.134747 -0.08338,0.218686 0.739029,1.431409 1.58286,2.794473 2.512018,4.087253 0.03882,0.05469 0.108615,0.07812 0.172662,0.05857 4.021196,-1.243914 8.098676,-3.120597 12.30806,-6.211874 0.03688,-0.02731 0.06016,-0.06834 0.06405,-0.113259 1.026138,-10.615545 -1.718706,-19.836696 -7.276253,-28.0112012 -0.01359,-0.02731 -0.03681,-0.046856 -0.06398,-0.058571 z M 43.434598,31.830742 c -2.42482,0 -4.422803,-2.226166 -4.422803,-4.960127 0,-2.733962 1.959236,-4.960127 4.422803,-4.960127 2.482905,0 4.46155,2.245712 4.422734,4.960127 0,2.733961 -1.959237,4.960127 -4.422734,4.960127 z m 16.352547,0 c -2.424751,0 -4.422734,-2.226166 -4.422734,-4.960127 0,-2.733962 1.959167,-4.960127 4.422734,-4.960127 2.482975,0 4.46155,2.245712 4.422803,4.960127 0,2.733961 -1.939828,4.960127 -4.422803,4.960127 z"
   fill="#5865f2"
   id="path1026-4"
   style="display:inline;fill:#ffffff;fill-opacity:1;stroke-width:0.693142"
   inkscape:label="logo" /></g></svg>
