<?xml version="1.0" encoding="UTF-8" standalone="no"?>
<!-- Generator: Adobe Illustrator 26.0.1, SVG Export Plug-In . SVG Version: 6.00 Build 0)  -->

<svg
   version="1.1"
   x="0px"
   y="0px"
   viewBox="0 0 400.00003 49.999999"
   xml:space="preserve"
   id="svg94"
   sodipodi:docname="discord.svg"
   inkscape:version="1.2 (dc2aedaf03, 2022-05-15)"
   width="400"
   height="50"
   xmlns:inkscape="http://www.inkscape.org/namespaces/inkscape"
   xmlns:sodipodi="http://sodipodi.sourceforge.net/DTD/sodipodi-0.dtd"
   xmlns="http://www.w3.org/2000/svg"
   xmlns:svg="http://www.w3.org/2000/svg"><defs
   id="defs98" /><sodipodi:namedview
   id="namedview96"
   pagecolor="#ffffff"
   bordercolor="#000000"
   borderopacity="0.25"
   inkscape:showpageshadow="2"
   inkscape:pageopacity="0.0"
   inkscape:pagecheckerboard="0"
   inkscape:deskcolor="#000000"
   showgrid="false"
   inkscape:zoom="2.8284271"
   inkscape:cx="249.25514"
   inkscape:cy="6.5407377"
   inkscape:window-width="1920"
   inkscape:window-height="999"
   inkscape:window-x="0"
   inkscape:window-y="0"
   inkscape:window-maximized="1"
   inkscape:current-layer="Слой_2" />
<style
   type="text/css"
   id="style74">
	.st0{display:none;}
	.st1{display:inline;}
	.st2{fill:#2091C0;}
	.st3{fill:#FFFFFF;}
	.st4{font-family:'JetBrainsMono-Medium';}
	.st5{font-size:47.0914px;}
</style>


<g
   inkscape:groupmode="layer"
   id="layer1"
   inkscape:label="background"
   sodipodi:insensitive="true"><rect
     x="25.060112"
     y="1.9475327"
     class="st2"
     width="349.15256"
     height="46.104935"
     id="rect83"
     inkscape:label="rect1"
     style="stroke-width:0.965688" /><circle
     style="fill:#2091c0;fill-opacity:1"
     id="path562"
     cx="25.060112"
     cy="25"
     r="23.052467"
     inkscape:label="circle2" /><circle
     style="fill:#2091c0;fill-opacity:1"
     id="path562-3"
     cx="374.21268"
     cy="25"
     r="23.052467"
     inkscape:label="circle1" /></g><g
   id="Слой_2"
   transform="translate(-4)"
   inkscape:label="foreground">
	
<path
   class="st3"
   d="M 28.214996,22.278459 C 42.345102,16.087434 60.626843,8.5125309 63.176083,7.4928329 c 6.62804,-2.767753 8.66744,-2.185068 7.64774,3.8602871 -0.72836,4.370135 -2.84059,18.86442 -4.51581,27.823198 -1.0197,5.316999 -3.20476,5.972518 -6.70087,3.64178 -1.67522,-1.092534 -10.19699,-6.700876 -12.01788,-8.084751 -1.675217,-1.238206 -4.005957,-2.622082 -1.092533,-5.46267 1.019703,-1.019698 7.793413,-7.502067 13.110413,-12.527723 0.72835,-0.65552 -0.14567,-1.748054 -0.94687,-1.238206 -7.13788,4.734315 -17.043527,11.289518 -18.281732,12.163546 -1.893727,1.31104 -3.714617,1.893725 -6.992218,0.946862 -2.47641,-0.728356 -4.879985,-1.529548 -5.826848,-1.893725 -3.714615,-1.238206 -2.840588,-2.840588 0.655521,-4.442972 z"
   id="path89"
   style="stroke-width:0.728356"
   transform="translate(4)"
   inkscape:label="logo" /><text
   xml:space="preserve"
   style="font-size:32px;font-family:'DejaVu Sans Mono for Powerline';-inkscape-font-specification:'DejaVu Sans Mono for Powerline';fill:#ffffff"
   x="79.61216"
   y="34.408001"
   id="text227"
   inkscape:label="text"><tspan
     sodipodi:role="line"
     id="tspan225"
     x="79.61216"
     y="34.408001"
     style="font-style:normal;font-variant:normal;font-weight:normal;font-stretch:normal;font-size:32px;font-family:Ubuntu;-inkscape-font-specification:Ubuntu">telegram - @gmanka</tspan></text></g></svg>
