<?xml version="1.0" encoding="UTF-8" standalone="no"?>
<!-- Generator: Adobe Illustrator 26.0.1, SVG Export Plug-In . SVG Version: 6.00 Build 0)  -->

<svg
   version="1.1"
   x="0px"
   y="0px"
   viewBox="0 0 150.00001 24.999999"
   xml:space="preserve"
   id="svg94"
   sodipodi:docname="github.svg"
   inkscape:version="1.2 (dc2aedaf03, 2022-05-15)"
   width="150"
   height="25"
   xmlns:inkscape="http://www.inkscape.org/namespaces/inkscape"
   xmlns:sodipodi="http://sodipodi.sourceforge.net/DTD/sodipodi-0.dtd"
   xmlns="http://www.w3.org/2000/svg"
   xmlns:svg="http://www.w3.org/2000/svg"><defs
   id="defs98"><clipPath
     id="clip0"><rect
       width="71"
       height="55"
       fill="#ffffff"
       id="rect1030"
       x="0"
       y="0" /></clipPath></defs><sodipodi:namedview
   id="namedview96"
   pagecolor="#ffffff"
   bordercolor="#000000"
   borderopacity="0.25"
   inkscape:showpageshadow="2"
   inkscape:pageopacity="0.0"
   inkscape:pagecheckerboard="0"
   inkscape:deskcolor="#000000"
   showgrid="false"
   inkscape:zoom="7.9999999"
   inkscape:cx="65.375001"
   inkscape:cy="15.5625"
   inkscape:window-width="1920"
   inkscape:window-height="999"
   inkscape:window-x="0"
   inkscape:window-y="0"
   inkscape:window-maximized="1"
   inkscape:current-layer="svg94" />
<style
   type="text/css"
   id="style74">
	.st0{display:none;}
	.st1{display:inline;}
	.st2{fill:#2091C0;}
	.st3{fill:#FFFFFF;}
	.st4{font-family:'JetBrainsMono-Medium';}
	.st5{font-size:47.0914px;}
</style>


<g
   inkscape:groupmode="layer"
   id="layer1"
   inkscape:label="background"><rect
     style="fill:#161b22;fill-opacity:1;stroke-width:0.643274"
     id="rect1506"
     width="148.47887"
     height="22.386663"
     x="0.62099999"
     y="1.4"
     ry="10.739675"
     inkscape:label="color_rounded" /></g><g
   id="Слой_2"
   transform="matrix(0.5,0,0,0.5,-3.1425839,0.11180457)"
   inkscape:label="foreground"
   style="display:inline">
	
<text
   xml:space="preserve"
   style="font-size:32px;font-family:'DejaVu Sans Mono for Powerline';-inkscape-font-specification:'DejaVu Sans Mono for Powerline';fill:#ffffff"
   x="80.52578"
   y="36.408001"
   id="text227"
   inkscape:label="text"><tspan
     sodipodi:role="line"
     id="tspan225"
     x="80.52578"
     y="36.408001"
     style="font-style:normal;font-variant:normal;font-weight:normal;font-stretch:normal;font-size:32px;font-family:Ubuntu;-inkscape-font-specification:Ubuntu">@gmankab</tspan></text><path
   d="M 22.057635,2.314 C 16.179167,2.314 11.413,7.0801668 11.413,12.959942 c 0,4.703429 3.050007,8.693207 7.280282,10.101556 0.532624,0.09737 0.726722,-0.231348 0.726722,-0.513672 0,-0.252261 -0.0092,-0.922125 -0.01438,-1.810267 -2.961128,0.64307 -3.585899,-1.427302 -3.585899,-1.427302 -0.484263,-1.229936 -1.182228,-1.557353 -1.182228,-1.557353 -0.966566,-0.660061 0.07319,-0.646991 0.07319,-0.646991 1.068516,0.07516 1.630548,1.097271 1.630548,1.097271 0.949574,1.626627 2.491896,1.156741 3.098368,0.884221 0.09672,-0.68751 0.371203,-1.156742 0.675746,-1.422727 -2.363804,-0.268599 -4.849164,-1.182229 -4.849164,-5.26154 0,-1.161969 0.414989,-2.112197 1.095963,-2.8565631 -0.109792,-0.2692531 -0.475113,-1.3514926 0.103911,-2.8173515 0,0 0.894024,-0.2862445 2.927797,1.0913884 0.848929,-0.2365762 1.759945,-0.3542109 2.665078,-0.3581321 0.903827,0.00392 1.814843,0.1215559 2.66508,0.3581321 2.032467,-1.3776329 2.92453,-1.0913884 2.92453,-1.0913884 0.580985,1.4658589 0.215664,2.5480984 0.105871,2.8173515 0.682282,0.7443661 1.094657,1.6945941 1.094657,2.8565631 0,4.089767 -2.489281,4.989673 -4.860928,5.253044 0.382312,0.328724 0.7228,0.978329 0.7228,1.971689 0,1.422727 -0.01307,2.570972 -0.01307,2.919955 0,0.284938 0.191483,0.616275 0.731949,0.512365 4.227008,-1.410963 7.274401,-5.398127 7.274401,-10.100249 C 32.704224,7.0801668 27.937404,2.314 22.057628,2.314"
   style="display:inline;fill:#ffffff;fill-opacity:1;fill-rule:evenodd;stroke:none;stroke-width:0.653525"
   id="path3673"
   transform="matrix(2,0,0,2,6.2851678,-0.22360914)"
   inkscape:label="logo" /></g></svg>
