<?xml version="1.0" encoding="utf-8"?>
<!-- Generator: Adobe Illustrator 26.0.1, SVG Export Plug-In . SVG Version: 6.00 Build 0)  -->
<svg version="1.1" xmlns="http://www.w3.org/2000/svg" xmlns:xlink="http://www.w3.org/1999/xlink" x="0px" y="0px"
	 viewBox="0 0 344.3 64.9" style="enable-background:new 0 0 344.3 64.9;" xml:space="preserve">
<style type="text/css">
	.st0{display:none;}
	.st1{display:inline;}
	.st2{fill:#2091C0;}
	.st3{fill:#FFFFFF;}
	.st4{font-family:'JetBrainsMono-Medium';}
	.st5{font-size:47.0914px;}
</style>
<g id="Слой_1" class="st0">
	<rect class="st1" width="344.3" height="64.9"/>
</g>
<g id="Слой_2">
	<g>
		<g>
			<path class="st2" d="M308.5,0.8c8.7,0,16.7,3.5,22.4,9.3c5.7,5.7,9.3,13.6,9.3,22.4s-3.5,16.7-9.3,22.4
				c-5.7,5.7-13.6,9.3-22.4,9.3V0.8z"/>
			<path class="st2" d="M35.8,64.1c-8.7,0-16.7-3.5-22.4-9.3c-5.7-5.7-9.3-13.6-9.3-22.4s3.5-16.7,9.3-22.4
				c5.7-5.7,13.6-9.3,22.4-9.3V64.1z"/>
			<rect x="35.8" y="0.8" class="st2" width="272.7" height="63.3"/>
		</g>
		<text transform="matrix(1 0 0 1 85.4942 47.5016)" class="st3 st4 st5">telegram</text>
		<path class="st3" d="M17.8,30.9C37.2,22.4,62.3,12,65.8,10.6c9.1-3.8,11.9-3,10.5,5.3c-1,6-3.9,25.9-6.2,38.2
			c-1.4,7.3-4.4,8.2-9.2,5c-2.3-1.5-14-9.2-16.5-11.1c-2.3-1.7-5.5-3.6-1.5-7.5c1.4-1.4,10.7-10.3,18-17.2c1-0.9-0.2-2.4-1.3-1.7
			c-9.8,6.5-23.4,15.5-25.1,16.7c-2.6,1.8-5.1,2.6-9.6,1.3c-3.4-1-6.7-2.1-8-2.6C11.8,35.3,13,33.1,17.8,30.9z"/>
	</g>
</g>
</svg>
