<?xml version="1.0" encoding="UTF-8" standalone="no"?>
<!-- Generator: Adobe Illustrator 26.0.1, SVG Export Plug-In . SVG Version: 6.00 Build 0)  -->

<svg
   version="1.1"
   x="0px"
   y="0px"
   viewBox="0 0 344.3 64.9"
   xml:space="preserve"
   id="svg94"
   sodipodi:docname="telegram.svg"
   inkscape:version="1.2 (dc2aedaf03, 2022-05-15)"
   width="344.29999"
   height="64.900002"
   xmlns:inkscape="http://www.inkscape.org/namespaces/inkscape"
   xmlns:sodipodi="http://sodipodi.sourceforge.net/DTD/sodipodi-0.dtd"
   xmlns="http://www.w3.org/2000/svg"
   xmlns:svg="http://www.w3.org/2000/svg"><defs
   id="defs98" /><sodipodi:namedview
   id="namedview96"
   pagecolor="#ffffff"
   bordercolor="#000000"
   borderopacity="0.25"
   inkscape:showpageshadow="2"
   inkscape:pageopacity="0.0"
   inkscape:pagecheckerboard="0"
   inkscape:deskcolor="#000000"
   showgrid="false"
   inkscape:zoom="4"
   inkscape:cx="176"
   inkscape:cy="34.875"
   inkscape:window-width="1920"
   inkscape:window-height="999"
   inkscape:window-x="0"
   inkscape:window-y="0"
   inkscape:window-maximized="1"
   inkscape:current-layer="g91" />
<style
   type="text/css"
   id="style74">
	.st0{display:none;}
	.st1{display:inline;}
	.st2{fill:#2091C0;}
	.st3{fill:#FFFFFF;}
	.st4{font-family:'JetBrainsMono-Medium';}
	.st5{font-size:47.0914px;}
</style>
<path
   style="fill:#2091c0;fill-opacity:1;stroke-width:0.125"
   d="m 33.862499,63.805124 c -0.17188,-0.02483 -0.81875,-0.105775 -1.4375,-0.179884 -4.254914,-0.50962 -9.078844,-2.282615 -12.812504,-4.709128 -2.78051,-1.807058 -5.98454,-4.70479 -7.77506,-7.031801 C 6.2308351,44.597847 3.9994251,35.830174 5.5012051,26.987975 c 1.07912,-6.353669 4.14457,-12.255704 8.7929899,-16.929497 4.11693,-4.1393993 9.09419,-6.9655621 14.70109,-8.347504 2.53071,-0.623748 4.068154,-0.82956999 6.804714,-0.91097399 6.75721,-0.201004 13.23147,1.71815729 18.75,5.55805069 3.48341,2.423823 6.69573,5.8014443 8.93997,9.4000173 6.28348,10.075357 6.2628,23.143028 -0.0526,33.215415 -2.61058,4.163624 -6.52036,8.017138 -10.60308,10.45049 -3.7751,2.250015 -8.22876,3.766782 -12.54174,4.271299 -1.44047,0.168501 -5.53929,0.238526 -6.43007,0.109852 z"
   id="path1102"
   inkscape:label="rec2" /><path
   style="fill:#2091c0;fill-opacity:1;stroke-width:0.125"
   d="m 306.5625,63.805125 c -0.17188,-0.02483 -0.81875,-0.105775 -1.4375,-0.179884 -4.25491,-0.50962 -9.07884,-2.282615 -12.8125,-4.709128 -2.78051,-1.807058 -5.98454,-4.70479 -7.77506,-7.031801 -5.6066,-7.286464 -7.83801,-16.054137 -6.33623,-24.896336 1.07912,-6.353669 4.14457,-12.255705 8.79299,-16.929498 4.11693,-4.1393994 9.09419,-6.9655622 14.70109,-8.3475045 2.53071,-0.6237476 4.06815,-0.82956989 6.80471,-0.91097349 6.75721,-0.2010046 13.23147,1.71815719 18.75,5.55805059 3.48341,2.423823 6.69573,5.8014444 8.93997,9.4000184 6.28348,10.075357 6.2628,23.143028 -0.0526,33.215415 -2.61058,4.163624 -6.52036,8.017138 -10.60308,10.45049 -3.7751,2.250015 -8.22876,3.766782 -12.54174,4.271299 -1.44047,0.168501 -5.53929,0.238526 -6.43007,0.109852 z"
   id="path1098"
   inkscape:label="circle1" />
<g
   id="Слой_2">
	<g
   id="g91">
		
		<rect
   x="35.799999"
   y="0.80000001"
   class="st2"
   width="272.70001"
   height="63.299999"
   id="rect83"
   inkscape:label="rect1" /><text
   transform="translate(85.4942,47.5016)"
   class="st3 st4 st5"
   id="text87"
   style="font-style:normal;font-variant:normal;font-weight:normal;font-stretch:normal;font-family:'JetBrains Mono';-inkscape-font-specification:'JetBrains Mono'"><tspan
     style="font-style:normal;font-variant:normal;font-weight:normal;font-stretch:normal;font-family:'DejaVu Sans Mono for Powerline';-inkscape-font-specification:'DejaVu Sans Mono for Powerline'"
     id="tspan287">telegram</tspan></text>
		
	<path
   class="st3"
   d="m 17.8,30.9 c 19.4,-8.5 44.5,-18.9 48,-20.3 9.1,-3.8 11.9,-3 10.5,5.3 -1,6 -3.9,25.9 -6.2,38.2 -1.4,7.3 -4.4,8.2 -9.2,5 -2.3,-1.5 -14,-9.2 -16.5,-11.1 -2.3,-1.7 -5.5,-3.6 -1.5,-7.5 1.4,-1.4 10.7,-10.3 18,-17.2 1,-0.9 -0.2,-2.4 -1.3,-1.7 -9.8,6.5 -23.4,15.5 -25.1,16.7 -2.6,1.8 -5.1,2.6 -9.6,1.3 -3.4,-1 -6.7,-2.1 -8,-2.6 -5.1,-1.7 -3.9,-3.9 0.9,-6.1 z"
   id="path89" /></g>
</g>
</svg>
