<?xml version="1.0" encoding="UTF-8" standalone="no"?>
<!-- Generator: Adobe Illustrator 26.0.1, SVG Export Plug-In . SVG Version: 6.00 Build 0)  -->

<svg
   version="1.1"
   x="0px"
   y="0px"
   viewBox="0 0 450.00003 49.999999"
   xml:space="preserve"
   id="svg94"
   sodipodi:docname="wide_github.svg"
   inkscape:version="1.2 (dc2aedaf03, 2022-05-15)"
   width="450"
   height="50"
   xmlns:inkscape="http://www.inkscape.org/namespaces/inkscape"
   xmlns:sodipodi="http://sodipodi.sourceforge.net/DTD/sodipodi-0.dtd"
   xmlns="http://www.w3.org/2000/svg"
   xmlns:svg="http://www.w3.org/2000/svg"><defs
   id="defs98"><clipPath
     id="clip0"><rect
       width="71"
       height="55"
       fill="#ffffff"
       id="rect1030"
       x="0"
       y="0" /></clipPath></defs><sodipodi:namedview
   id="namedview96"
   pagecolor="#ffffff"
   bordercolor="#000000"
   borderopacity="0.25"
   inkscape:showpageshadow="2"
   inkscape:pageopacity="0.0"
   inkscape:pagecheckerboard="0"
   inkscape:deskcolor="#000000"
   showgrid="false"
   inkscape:zoom="1.7935612"
   inkscape:cx="367.42544"
   inkscape:cy="-98.407572"
   inkscape:window-width="1920"
   inkscape:window-height="999"
   inkscape:window-x="0"
   inkscape:window-y="0"
   inkscape:window-maximized="1"
   inkscape:current-layer="svg94" />
<style
   type="text/css"
   id="style74">
	.st0{display:none;}
	.st1{display:inline;}
	.st2{fill:#2091C0;}
	.st3{fill:#FFFFFF;}
	.st4{font-family:'JetBrainsMono-Medium';}
	.st5{font-size:47.0914px;}
</style>


<g
   inkscape:groupmode="layer"
   id="layer1"
   inkscape:label="background"
   style="display:inline"><rect
     x="174.63797"
     y="1.9475327"
     class="st2"
     width="273.02664"
     height="46.104935"
     id="rect83"
     inkscape:label="gray"
     style="fill:#333333;stroke-width:0.853945"
     ry="23.052467" /><rect
     style="fill:#161b22;fill-opacity:1;stroke-width:0.98941"
     id="rect1261"
     width="100.94121"
     height="46.104935"
     x="124.16737"
     y="1.9475327"
     ry="23.052467"
     rx="0"
     inkscape:label="color_square" /><rect
     style="fill:#161b22;fill-opacity:1;stroke-width:1.05406"
     id="rect1506"
     width="193.57217"
     height="46.104935"
     x="2.5525103"
     y="1.9475327"
     ry="22.118168"
     inkscape:label="color_rounded" /></g><g
   id="Слой_2"
   transform="translate(-4)"
   inkscape:label="foreground"
   style="display:inline">
	
<text
   xml:space="preserve"
   style="font-size:32px;font-family:'DejaVu Sans Mono for Powerline';-inkscape-font-specification:'DejaVu Sans Mono for Powerline';fill:#ffffff"
   x="80.52578"
   y="36.408001"
   id="text227"
   inkscape:label="text"><tspan
     sodipodi:role="line"
     id="tspan225"
     x="80.52578"
     y="36.408001"
     style="font-style:normal;font-variant:normal;font-weight:normal;font-stretch:normal;font-size:32px;font-family:Ubuntu;-inkscape-font-specification:Ubuntu">github             @gmankab</tspan></text><path
   d="M 52.031633,3.3579999 C 40.0383,3.3579999 30.3143,13.082 30.3143,25.077999 c 0,9.596 6.222667,17.736 14.853333,20.609333 1.086667,0.198667 1.482667,-0.472 1.482667,-1.048 0,-0.514666 -0.01867,-1.881333 -0.02933,-3.693333 -6.041333,1.312 -7.316,-2.912 -7.316,-2.912 -0.988,-2.509333 -2.411999,-3.177333 -2.411999,-3.177333 -1.972,-1.346667 0.149333,-1.32 0.149333,-1.32 2.18,0.153333 3.326666,2.238666 3.326666,2.238666 1.937334,3.318667 5.084,2.36 6.321334,1.804 0.197333,-1.402666 0.757333,-2.36 1.378666,-2.902666 -4.822666,-0.548 -9.893333,-2.412 -9.893333,-10.734667 0,-2.370666 0.846667,-4.309333 2.236,-5.827999 -0.224,-0.549334 -0.969333,-2.757334 0.212,-5.748 0,0 1.824,-0.584 5.973333,2.226666 C 48.328966,14.11 50.187633,13.87 52.034299,13.862 c 1.844,0.008 3.702667,0.248 5.437334,0.730666 C 61.618299,11.782 63.438299,12.366 63.438299,12.366 c 1.185333,2.990666 0.44,5.198666 0.216,5.748 1.392,1.518666 2.233333,3.457333 2.233333,5.827999 0,8.344 -5.078666,10.18 -9.917333,10.717333 0.78,0.670667 1.474667,1.996 1.474667,4.022667 0,2.902667 -0.02667,5.245333 -0.02667,5.957333 0,0.581334 0.390667,1.257333 1.493334,1.045333 C 67.535629,42.805999 73.752963,34.671332 73.752963,25.077999 73.752963,13.082 64.02763,3.3579999 52.03163,3.3579999"
   style="fill:#ffffff;fill-opacity:1;fill-rule:evenodd;stroke:none;stroke-width:1.33333"
   id="path3673" /></g></svg>
